<?xml version="1.0" encoding="UTF-8"?>
<svg width="256" height="256" viewBox="0 0 256 256" xmlns="http://www.w3.org/2000/svg">
  <defs>
    <filter id="shadow" x="-20%" y="-20%" width="140%" height="140%">
      <feDropShadow dx="0" dy="2" stdDeviation="4" flood-color="#000" flood-opacity="0.25"/>
    </filter>
  </defs>
  <!-- rounded square background -->
  <rect x="8" y="8" rx="56" ry="56" width="240" height="240" fill="#1E1F26" filter="url(#shadow)"/>
  <!-- TF monogram built from rectangles (white) -->
  <!-- T -->
  <rect x="48" y="78" width="92" height="20" fill="#FFFFFF"/>
  <rect x="85" y="98" width="20" height="88" fill="#FFFFFF"/>
  <!-- F -->
  <rect x="140" y="88" width="20" height="98" fill="#FFFFFF"/>
  <rect x="160" y="88" width="58" height="20" fill="#FFFFFF"/>
  <rect x="160" y="132" width="42" height="20" fill="#FFFFFF"/>
  <!-- Flip arrows ring (green) -->
  <g transform="translate(128,128)">
    <path d="M-72,-2 A74 74 0 0 1 56 -48" fill="none" stroke="#1CB941" stroke-width="10" stroke-linecap="round"/>
    <polygon points="61,-54 50,-36 73,-39" fill="#1CB941"/>
    <path d="M72,2 A74 74 0 0 1 -56 48" fill="none" stroke="#1CB941" stroke-width="10" stroke-linecap="round"/>
    <polygon points="-61,54 -50,36 -73,39" fill="#1CB941"/>
  </g>
</svg>